<?xml version="1.0" encoding="UTF-8"?>
<!DOCTYPE svg PUBLIC "-//W3C//DTD SVG 1.1//EN" "http://www.w3.org/Graphics/SVG/1.1/DTD/svg11.dtd">
<!-- Creator: CorelDRAW 2019 (64-Bit) -->
<svg xmlns="http://www.w3.org/2000/svg" xml:space="preserve" width="210mm" height="148mm" version="1.1" shape-rendering="geometricPrecision" text-rendering="geometricPrecision" image-rendering="optimizeQuality" fill-rule="evenodd" clip-rule="evenodd"
viewBox="0 0 21000 14800"
 xmlns:xlink="http://www.w3.org/1999/xlink">
 <g id="Layer_x0020_1">
  <metadata id="CorelCorpID_0Corel-Layer"/>
  <g id="_2242611685008">
   <path fill="#073075" fill-rule="nonzero" d="M8952.96 8632.15l600.72 0 218.15 -567.93 916.2 0 214.79 567.93 624.22 0 -949.76 -2352.38 -661.14 0 -963.18 2352.38zm993.38 -1028.33l288.63 -752.76 281.9 752.76 -570.53 0z"/>
   <path id="1" fill="#073075" fill-rule="nonzero" d="M12938.58 8632.15l536.97 0 0 -2470 -543.68 117.62 0 668.74c-134.24,-77.29 -288.63,-117.61 -453.07,-117.61 -516.83,0 -922.92,399.9 -922.92,910.7 0,510.81 399.38,914.07 906.14,914.07 174.51,0 338.96,-53.76 476.56,-154.58l0 131.06zm-849.08 -890.55c0,-255.4 201.36,-450.31 466.49,-450.31 147.66,0 281.9,50.41 375.88,137.78l0 621.7c-97.33,94.1 -224.86,141.15 -375.88,141.15 -261.77,0 -466.49,-194.91 -466.49,-450.32z"/>
   <polygon id="2" fill="#073075" fill-rule="nonzero" points="13903.76,8632.15 15769.72,8632.15 15769.72,8131.43 14481,8131.43 14481,7687.84 15323.36,7687.84 15323.36,7203.92 14481,7203.92 14481,6780.49 15756.3,6780.49 15756.3,6279.77 13903.76,6279.77 "/>
   <polygon id="3" fill="#073075" fill-rule="nonzero" points="15929.46,8632.15 16536.9,8632.15 16906.07,8124.71 17278.59,8632.15 17909.52,8632.15 17218.18,7724.8 17872.61,6854.42 17265.17,6854.42 16919.49,7331.62 16570.46,6854.42 15939.53,6854.42 16604.02,7731.52 "/>
   <polygon fill="#51A8FF" points="3076.23,8927.45 4595.39,7408.29 3076.29,5889.19 3978.04,4987.45 5498.26,6507.74 7018.62,4987.45 7920.35,5889.19 6401.2,7408.36 7920.31,8927.45 7017.43,9830.33 5498.34,8311.23 3979.18,9830.38 "/>
   <polygon fill="#0F50BF" points="4080.26,4885.22 5498.34,3467.17 6916.38,4885.22 6155.6,5646.03 5498.34,4988.76 4841.06,5646.03 "/>
   <polygon fill="#0F50BF" points="4080.26,9931.43 5498.34,11349.49 6916.38,9931.43 6155.6,9170.63 5498.34,9827.89 4841.06,9170.63 "/>
  </g>
 </g>
</svg>
