<svg id="guardarian-color" xmlns="http://www.w3.org/2000/svg" xmlns:xlink="http://www.w3.org/1999/xlink" width="140" height="55.544" viewBox="0 0 140 55.544">
  <defs>
    <linearGradient id="linear-gradient" x1="1.295" y1="1.037" x2="0.093" y2="0.088" gradientUnits="objectBoundingBox">
      <stop offset="0.14" stop-color="#1b0067"/>
      <stop offset="0.21" stop-color="#251277"/>
      <stop offset="0.34" stop-color="#363092"/>
      <stop offset="0.48" stop-color="#4347a7"/>
      <stop offset="0.62" stop-color="#4c57b6"/>
      <stop offset="0.79" stop-color="#5161bf"/>
      <stop offset="1" stop-color="#5364c2"/>
    </linearGradient>
    <linearGradient id="linear-gradient-2" x1="0.023" y1="1.206" x2="0.952" y2="-0.001" gradientUnits="objectBoundingBox">
      <stop offset="0.15" stop-color="#1b0067"/>
      <stop offset="0.22" stop-color="#251277"/>
      <stop offset="0.35" stop-color="#363092"/>
      <stop offset="0.48" stop-color="#4347a7"/>
      <stop offset="0.63" stop-color="#4c57b6"/>
      <stop offset="0.79" stop-color="#5161bf"/>
      <stop offset="1" stop-color="#5364c2"/>
    </linearGradient>
    <linearGradient id="linear-gradient-3" x1="-0.096" y1="3.097" x2="0.376" y2="1.041" gradientUnits="objectBoundingBox">
      <stop offset="0.14" stop-color="#1b0067"/>
      <stop offset="0.53" stop-color="#352e91"/>
      <stop offset="1" stop-color="#5364c2"/>
    </linearGradient>
    <linearGradient id="linear-gradient-4" x1="0.588" y1="-0.983" x2="0.462" y2="1.139" xlink:href="#linear-gradient"/>
    <linearGradient id="linear-gradient-5" x1="0.5" y1="1.753" x2="0.5" y2="-0.848" gradientUnits="objectBoundingBox">
      <stop offset="0.18" stop-color="#1b0067"/>
      <stop offset="0.24" stop-color="#251277"/>
      <stop offset="0.37" stop-color="#363092"/>
      <stop offset="0.5" stop-color="#4347a7"/>
      <stop offset="0.64" stop-color="#4c57b6"/>
      <stop offset="0.8" stop-color="#5161bf"/>
      <stop offset="1" stop-color="#5364c2"/>
    </linearGradient>
    <linearGradient id="linear-gradient-6" x2="0.741" y2="1.01" gradientUnits="objectBoundingBox">
      <stop offset="0" stop-color="#5364c2"/>
      <stop offset="1" stop-color="#393698"/>
    </linearGradient>
  </defs>
  <path id="Path_3103" data-name="Path 3103" d="M375.6,82.26c2.18,2.91-4.2,8.533-2.769,6.211h-13.6a15.923,15.923,0,0,1-2.969-6.211Z" transform="translate(-294.336 -67.962)" fill="url(#linear-gradient)"/>
  <path id="Path_3105" data-name="Path 3105" d="M420.175,82.26a23.143,23.143,0,0,1-1.834,6.52,27.725,27.725,0,0,1-8.079,10.255,10.943,10.943,0,0,1-5.509-.861c-.7-.3-1.756-.9-1.764-1.694a28.05,28.05,0,0,0,2.376-1.564,2.589,2.589,0,0,0,.221-.16A22.6,22.6,0,0,0,414.2,82.269Z" transform="translate(-332.943 -67.962)" fill="url(#linear-gradient-2)"/>
  <path id="Path_3106" data-name="Path 3106" d="M367.536,0H338.42V6.237h29.116Z" transform="translate(-280.109)" fill="url(#linear-gradient-3)"/>
  <path id="Path_3107" data-name="Path 3107" d="M473.236,35.87v5.14c0,.212,0,.426-.012.638H466.98c0-.212.01-.426.01-.638V35.87Z" transform="translate(-385.81 -29.635)" fill="url(#linear-gradient-4)"/>
  <path id="Path_3108" data-name="Path 3108" d="M11.86,255.764a9.106,9.106,0,0,1-.414,3,5.266,5.266,0,0,1-2.086,2.718,5.937,5.937,0,0,1-3.316.911,5.721,5.721,0,0,1-4.782-2.121,6.529,6.529,0,0,1,.216-7.99,5.886,5.886,0,0,1,4.676-1.912,5.563,5.563,0,0,1,3.4,1.029,5.743,5.743,0,0,1,1.7,2.154l-2.781,1.152a3.284,3.284,0,0,0-.831-1.187,2.477,2.477,0,0,0-1.622-.561,2.709,2.709,0,0,0-2.677,1.976,4.1,4.1,0,0,0-.283,1.505A3.749,3.749,0,0,0,4.08,259.13a2.643,2.643,0,0,0,2.022.8,2.414,2.414,0,0,0,1.778-.652,2.223,2.223,0,0,0,.567-1.271H6.025v-2.246H11.86Zm15.133,1.491a7.82,7.82,0,0,1-.174,1.738,4.035,4.035,0,0,1-1.218,2.049,5.139,5.139,0,0,1-3.681,1.3,4.931,4.931,0,0,1-3.662-1.326,3.637,3.637,0,0,1-.954-1.749,8.774,8.774,0,0,1-.183-2.006v-6.532h2.943v6.12q0,.739.026,1.1a1.779,1.779,0,0,0,1.043,1.608,2.015,2.015,0,0,0,.88.189A1.879,1.879,0,0,0,23.634,259a3.915,3.915,0,0,0,.407-2.145v-6.12h2.943l.009,6.523Zm15.5,4.79H39.347l-.728-1.973H34.557l-.779,1.973H30.67l4.345-11.314H38.23Zm-4.667-4.21-1.217-3.607-1.236,3.607Zm18.772,4.21h-3.65L50.135,257.7v4.345h-2.95V250.732h4.577a3.572,3.572,0,0,1,2.967,1.2,3.532,3.532,0,0,1,.779,2.281,3.237,3.237,0,0,1-.9,2.4,3.13,3.13,0,0,1-1.575.8Zm-4.137-7.671a1.343,1.343,0,0,0-.44-1.017,1.917,1.917,0,0,0-1.34-.388h-.549v2.818h.549a1.905,1.905,0,0,0,1.34-.389,1.36,1.36,0,0,0,.438-1.024Zm18.687,2.009a5.79,5.79,0,0,1-3.789,5.354,5.419,5.419,0,0,1-1.79.306H61.221V250.732h4.345a5.3,5.3,0,0,1,2.955.886,5.708,5.708,0,0,1,2.044,2.3,5.581,5.581,0,0,1,.581,2.468Zm-3.05,0a3.3,3.3,0,0,0-.657-2.044,3.05,3.05,0,0,0-2.607-1.154h-.673v6.407h.673a3.054,3.054,0,0,0,2.607-1.156,3.337,3.337,0,0,0,.654-2.053Zm17.71,5.661H82.665l-.73-1.973H77.872l-.779,1.973H73.986l4.345-11.314h3.214l4.26,11.314Zm-4.667-4.21-1.217-3.607-1.227,3.607Zm18.772,4.21H96.25L93.441,257.7v4.345H90.5V250.732h4.575a3.572,3.572,0,0,1,2.967,1.2,3.532,3.532,0,0,1,.779,2.28,3.237,3.237,0,0,1-.9,2.4,3.13,3.13,0,0,1-1.575.8Zm-4.135-7.671a1.344,1.344,0,0,0-.441-1.017A1.921,1.921,0,0,0,94,252.97h-.549v2.818h.544a1.9,1.9,0,0,0,1.338-.389,1.363,1.363,0,0,0,.445-1.024h0Zm11.708,7.671H104.54V250.732h2.943Zm16.523,0h-3.143l-.73-1.973h-4.06l-.779,1.973h-3.11l4.345-11.314h3.207Zm-4.665-4.21-1.217-3.607-1.236,3.607ZM140,262.045h-2.943l-5.413-6.928v6.928H128.7V250.732h2.943l5.413,6.921v-6.921H140Z" transform="translate(0 -206.851)" fill="url(#linear-gradient-5)"/>
  <path id="Path_3104" data-name="Path 3104" d="M327.215,31.061a35.183,35.183,0,0,1-6.233,3.977l-1.083.542-1.09-.542C308.58,29.907,302.47,21.065,302.47,11.375V0h6.24V11.375a15.6,15.6,0,0,0,.15,2.169c.786,5.887,4.761,11.317,11.011,14.974a.077.077,0,0,0,.021.014l.016-.01.026-.016a22.534,22.534,0,0,0,7.281,2.555Z" transform="translate(-249.895)" fill="url(#linear-gradient-6)"/>
</svg>
