<svg id="moonpay_logo" data-name="moonpay logo" xmlns="http://www.w3.org/2000/svg" width="140" height="25.492" viewBox="0 0 140 25.492">
  <path id="path0" d="M77.333,19.587v8.605h3.675l0-5.731c0-3.479.024-5.68.056-5.6s.074.131.1.131.079.076.12.168a1.663,1.663,0,0,0,.218.335.617.617,0,0,1,.144.237.164.164,0,0,0,.073.117.922.922,0,0,1,.187.251,2.023,2.023,0,0,0,.219.317.381.381,0,0,1,.105.187.165.165,0,0,0,.073.12A.972.972,0,0,1,82.5,19a.967.967,0,0,0,.189.28.164.164,0,0,1,.074.12.383.383,0,0,0,.1.187,1.978,1.978,0,0,1,.219.317.938.938,0,0,0,.187.251.165.165,0,0,1,.073.12.383.383,0,0,0,.105.187,2,2,0,0,1,.219.317,1.511,1.511,0,0,0,.149.233,1.2,1.2,0,0,1,.133.219c.054.1.117.189.14.189s.089.1.144.233.124.233.152.233.084.079.125.176a.59.59,0,0,0,.141.219.821.821,0,0,1,.17.261c.056.12.124.219.152.219s.1.118.158.262a.676.676,0,0,0,.15.262c.023,0,.086.085.14.19a.815.815,0,0,0,.153.225.57.57,0,0,1,.125.175c.069.139.074.139,1.2.155,1.254.018,1.2.033,1.436-.395a.932.932,0,0,1,.187-.251.165.165,0,0,0,.073-.12.384.384,0,0,1,.105-.187,2.035,2.035,0,0,0,.219-.317.94.94,0,0,1,.187-.251.174.174,0,0,0,.073-.131.346.346,0,0,1,.1-.189,1.419,1.419,0,0,0,.207-.321c.057-.119.125-.217.152-.217s.081-.079.121-.176a.59.59,0,0,1,.141-.219A.825.825,0,0,0,90.07,21c.056-.12.124-.219.15-.219s.082-.079.122-.176a.59.59,0,0,1,.14-.219.95.95,0,0,0,.176-.29c.06-.136.13-.248.156-.248s.092-.1.148-.219a.83.83,0,0,1,.17-.261.587.587,0,0,0,.141-.219c.04-.1.1-.176.125-.176s.1-.1.152-.233.121-.233.144-.233.087-.085.14-.19a1.213,1.213,0,0,1,.133-.219,1.5,1.5,0,0,0,.149-.233,2.023,2.023,0,0,1,.219-.317.381.381,0,0,0,.1-.187.164.164,0,0,1,.074-.12.936.936,0,0,0,.188-.265c.063-.12.135-.219.16-.219s.045,2.572.045,5.717v5.717h3.558V10.984H92.8l-.1.2c-.053.112-.116.2-.138.2s-.075.076-.116.168a1.441,1.441,0,0,1-.189.3.464.464,0,0,0-.115.2.384.384,0,0,1-.105.181,1.979,1.979,0,0,0-.219.317.938.938,0,0,1-.187.251.162.162,0,0,0-.073.117.619.619,0,0,1-.144.237,1.665,1.665,0,0,0-.218.336c-.041.092-.093.168-.116.168s-.085.092-.138.2-.12.2-.148.2-.089.091-.136.2a1.345,1.345,0,0,1-.205.332.442.442,0,0,0-.12.2.165.165,0,0,1-.073.12.938.938,0,0,0-.187.251,1.979,1.979,0,0,1-.219.317.383.383,0,0,0-.105.187.164.164,0,0,1-.073.12.931.931,0,0,0-.187.251,2,2,0,0,1-.219.317.383.383,0,0,0-.1.187.164.164,0,0,1-.073.12.983.983,0,0,0-.189.28.957.957,0,0,1-.189.28.164.164,0,0,0-.074.12.381.381,0,0,1-.1.187,2,2,0,0,0-.219.317.929.929,0,0,1-.187.251.166.166,0,0,0-.073.12.381.381,0,0,1-.1.187,2.023,2.023,0,0,0-.219.317.943.943,0,0,1-.187.251.165.165,0,0,0-.073.12.384.384,0,0,1-.1.187,1.508,1.508,0,0,0-.188.288c-.155.318-.276.4-.357.252a1.43,1.43,0,0,0-.177-.245.4.4,0,0,1-.108-.19.164.164,0,0,0-.073-.12.946.946,0,0,1-.187-.251,2,2,0,0,0-.219-.317.383.383,0,0,1-.105-.187.165.165,0,0,0-.073-.12.968.968,0,0,1-.189-.28.963.963,0,0,0-.19-.28.164.164,0,0,1-.074-.12.381.381,0,0,0-.105-.187,2.024,2.024,0,0,1-.219-.317.937.937,0,0,0-.187-.251.165.165,0,0,1-.073-.12.439.439,0,0,0-.12-.2,1.339,1.339,0,0,1-.205-.332c-.047-.112-.107-.2-.135-.2s-.083-.079-.124-.176a.587.587,0,0,0-.141-.219.83.83,0,0,1-.17-.261c-.056-.12-.122-.219-.147-.219s-.089-.092-.142-.2-.119-.2-.145-.2-.1-.117-.154-.259a.676.676,0,0,0-.187-.29.122.122,0,0,1-.08-.1,1.306,1.306,0,0,0-.2-.345,1.33,1.33,0,0,1-.2-.343.061.061,0,0,0-.056-.065c-.031,0-.1-.092-.153-.2s-.114-.2-.135-.2a.608.608,0,0,1-.153-.219,1.545,1.545,0,0,0-.151-.248,1.161,1.161,0,0,1-.133-.219c-.054-.1-.117-.19-.14-.19s-.089-.1-.144-.233-.124-.233-.153-.233-.084-.079-.124-.176a.61.61,0,0,0-.139-.219.544.544,0,0,1-.13-.159c-.062-.112-.133-.117-1.91-.132l-1.846-.015v8.605m68.192,0v8.609H149.2V22.02l2.464-.028a13.877,13.877,0,0,0,3.427-.209,2.154,2.154,0,0,1,.435-.14,1.8,1.8,0,0,0,.438-.148.992.992,0,0,1,.287-.127,1.251,1.251,0,0,0,.322-.143,1.864,1.864,0,0,1,.3-.177.964.964,0,0,0,.279-.19.173.173,0,0,1,.13-.073.287.287,0,0,0,.173-.137.661.661,0,0,1,.235-.2c.08-.036.145-.093.145-.126a.994.994,0,0,1,.233-.286,1.056,1.056,0,0,0,.233-.281.4.4,0,0,1,.1-.167,1.7,1.7,0,0,0,.3-.6.089.089,0,0,1,.054-.079,1.3,1.3,0,0,0,.159-.428,1.929,1.929,0,0,1,.149-.44,8.351,8.351,0,0,0,0-3.089,2.013,2.013,0,0,1-.139-.426,1.636,1.636,0,0,0-.177-.474,1.06,1.06,0,0,1-.156-.317c-.044-.132-.1-.241-.127-.241s-.089-.081-.14-.18a5.345,5.345,0,0,0-1.01-1.045.244.244,0,0,1-.136-.1,1.083,1.083,0,0,0-.323-.219.66.66,0,0,1-.248-.158.836.836,0,0,0-.321-.135.821.821,0,0,1-.321-.135,1.463,1.463,0,0,0-.452-.153,2.5,2.5,0,0,1-.481-.149c-.112-.146-1.268-.193-5.294-.216l-4.214-.024v8.609m7.966-5.5a1.3,1.3,0,0,1,.375.105,1.39,1.39,0,0,0,.321.149.933.933,0,0,1,.338.187.161.161,0,0,0,.115.078c.1,0,.427.385.516.6a.7.7,0,0,0,.123.218,3.879,3.879,0,0,1-.009,2.154.91.91,0,0,0-.121.233,2.225,2.225,0,0,1-.645.716,1.79,1.79,0,0,1-.692.275c-.061,0-.119.025-.13.055a9.3,9.3,0,0,1-2.745.178H149.2V14.017h1.973c1.182,0,2.111.026,2.319.064m-48.827,1.492a1.144,1.144,0,0,0-.379.067,3.323,3.323,0,0,1-.64.143,2.693,2.693,0,0,0-.642.154,1.191,1.191,0,0,1-.377.142,1.273,1.273,0,0,0-.379.141,1.08,1.08,0,0,1-.3.154,1.267,1.267,0,0,0-.292.143,1.265,1.265,0,0,1-.274.148.659.659,0,0,0-.275.188.135.135,0,0,1-.117.08.25.25,0,0,0-.162.1,1,1,0,0,1-.222.2,3.8,3.8,0,0,0-.97,1.053.232.232,0,0,1-.115.13.131.131,0,0,0-.082.11.385.385,0,0,1-.1.191,1.66,1.66,0,0,0-.3.6.058.058,0,0,1-.049.064,1.784,1.784,0,0,0-.242.678c0,.044-.023.081-.051.081a5.34,5.34,0,0,0-.211,1.925,5.34,5.34,0,0,0,.211,1.925c.028,0,.051.036.051.081a1.784,1.784,0,0,0,.242.677c.027,0,.05.033.05.073a.653.653,0,0,0,.081.219l.228.417a6.136,6.136,0,0,0,1.366,1.507c.039,0,.1.053.133.117s.095.117.133.117a.609.609,0,0,1,.237.143,1.3,1.3,0,0,0,.365.209c.109.036.2.084.2.108a.757.757,0,0,0,.292.147.794.794,0,0,1,.292.145,1.4,1.4,0,0,0,.423.148,1.821,1.821,0,0,1,.453.154,7.613,7.613,0,0,0,1.509.23c.132,0,.24.026.24.058a3.258,3.258,0,0,0,1.225,0c0-.032.14-.058.311-.058a6.161,6.161,0,0,0,1.439-.231,1.885,1.885,0,0,1,.452-.146,1.338,1.338,0,0,0,.423-.143.772.772,0,0,1,.292-.145.832.832,0,0,0,.292-.143.723.723,0,0,1,.262-.146c.144-.059.262-.128.262-.154s.046-.061.1-.08a.945.945,0,0,0,.411-.286.249.249,0,0,1,.131-.1,4.973,4.973,0,0,0,.815-.792.556.556,0,0,1,.131-.177,1.685,1.685,0,0,0,.417-.592.659.659,0,0,1,.151-.247.911.911,0,0,0,.149-.321.932.932,0,0,1,.148-.321,1.932,1.932,0,0,0,.145-.51,1.91,1.91,0,0,1,.168-.552,5.9,5.9,0,0,0,.062-1.329,5.9,5.9,0,0,0-.062-1.329,1.9,1.9,0,0,1-.168-.552,1.937,1.937,0,0,0-.145-.511.929.929,0,0,1-.148-.321.911.911,0,0,0-.149-.321.659.659,0,0,1-.151-.247,1.681,1.681,0,0,0-.417-.592.549.549,0,0,1-.131-.179,4.47,4.47,0,0,0-.809-.79c-.034,0-.09-.052-.124-.117a.21.21,0,0,0-.145-.117.248.248,0,0,1-.159-.1,1,1,0,0,0-.324-.213.686.686,0,0,1-.248-.148.818.818,0,0,0-.292-.143.71.71,0,0,1-.292-.151,1.077,1.077,0,0,0-.394-.151,1.875,1.875,0,0,1-.423-.145,5.049,5.049,0,0,0-1.08-.229c-.074,0-.144-.026-.154-.057a13.913,13.913,0,0,0-2.293-.079m15.938,0c-.216.014-.394.05-.394.08s-.059.056-.131.056a6,6,0,0,0-1.152.233,1.8,1.8,0,0,1-.394.147.993.993,0,0,0-.365.153c0,.025-.1.072-.224.105a1.08,1.08,0,0,0-.359.177.48.48,0,0,1-.2.117.383.383,0,0,0-.181.1,2.1,2.1,0,0,1-.311.219,5.009,5.009,0,0,0-.671.6,3.679,3.679,0,0,0-.771.9.951.951,0,0,1-.173.239.744.744,0,0,0-.141.277c-.043.13-.1.236-.124.236a.848.848,0,0,0-.149.335,1.646,1.646,0,0,1-.142.365,5.2,5.2,0,0,0-.227,1.085c0,.077-.026.14-.058.14a3.169,3.169,0,0,0-.058.933,3.168,3.168,0,0,0,.058.933c.032,0,.058.063.058.14a5.2,5.2,0,0,0,.227,1.085,1.646,1.646,0,0,1,.142.365.848.848,0,0,0,.149.335c.025,0,.082.108.125.24a.546.546,0,0,0,.155.269.114.114,0,0,1,.076.09,5.787,5.787,0,0,0,1.383,1.5.069.069,0,0,1,.075.059c0,.033.092.1.2.156s.2.119.2.146.105.09.233.141.233.114.233.139a.747.747,0,0,0,.306.145,1.38,1.38,0,0,1,.335.141,2.645,2.645,0,0,0,.76.239c.058,0,.114.023.125.052a5.285,5.285,0,0,0,1.43.24c.171,0,.31.026.31.058a3.258,3.258,0,0,0,1.225,0c0-.032.108-.058.24-.058a7.994,7.994,0,0,0,1.509-.227,1.89,1.89,0,0,1,.438-.151,2.108,2.108,0,0,0,.438-.146,1.331,1.331,0,0,1,.292-.142,1.32,1.32,0,0,0,.292-.142,1.417,1.417,0,0,1,.263-.154.974.974,0,0,0,.28-.19.161.161,0,0,1,.117-.073.954.954,0,0,0,.3-.2,1.5,1.5,0,0,1,.267-.2,4.679,4.679,0,0,0,.753-.757c0-.03.047-.089.105-.131a.936.936,0,0,0,.207-.3c.056-.12.122-.219.146-.219a1.3,1.3,0,0,0,.242-.49.258.258,0,0,1,.076-.119,1.108,1.108,0,0,0,.158-.331,1.025,1.025,0,0,1,.124-.285,5.3,5.3,0,0,0,.226-1.2c0-.108.026-.2.058-.2a2.163,2.163,0,0,0,.058-.758,2.164,2.164,0,0,0-.058-.758c-.032,0-.058-.089-.058-.2a5.308,5.308,0,0,0-.226-1.2,1.019,1.019,0,0,1-.124-.285,1.117,1.117,0,0,0-.158-.331.256.256,0,0,1-.076-.119,1.3,1.3,0,0,0-.242-.49c-.024,0-.091-.1-.147-.219a1.08,1.08,0,0,0-.236-.325c-.073-.058-.133-.128-.133-.155a3.314,3.314,0,0,0-.694-.7c-.032,0-.092-.048-.134-.106a1.04,1.04,0,0,0-.28-.219.933.933,0,0,1-.251-.185.164.164,0,0,0-.12-.073.386.386,0,0,1-.188-.107,1.51,1.51,0,0,0-.39-.212.754.754,0,0,1-.275-.144,1.371,1.371,0,0,0-.408-.15,1.306,1.306,0,0,1-.408-.152A5.249,5.249,0,0,0,123,15.709c-.086,0-.164-.027-.175-.059a12.46,12.46,0,0,0-2.221-.077m16.756.078c0,.032-.09.058-.2.058a4.112,4.112,0,0,0-1.081.221,1.6,1.6,0,0,1-.367.153.936.936,0,0,0-.335.154c0,.023-.1.088-.216.145a1.746,1.746,0,0,0-.364.24.644.644,0,0,1-.188.138,1.538,1.538,0,0,0-.418.422,2,2,0,0,1-.034-.554l0-.627h-3.442V28.192h3.436l.017-3.714a27.433,27.433,0,0,1,.09-3.738.129.129,0,0,0,.073-.119,2.412,2.412,0,0,1,.243-.771c.024,0,.087-.093.142-.208a1.65,1.65,0,0,1,.723-.707.336.336,0,0,0,.122-.09,2.374,2.374,0,0,1,.8-.219c.072,0,.131-.027.131-.059s.195-.058.467-.058.467.024.467.058.091.058.2.058a1.746,1.746,0,0,1,.833.268.27.27,0,0,0,.145.082,2.653,2.653,0,0,1,.788.893,1.306,1.306,0,0,0,.166.314c.163.166.2.994.2,4.483v3.527h3.506l-.021-4.244c-.021-4.138-.059-5.031-.219-5.031a.927.927,0,0,1-.117-.355,1.381,1.381,0,0,0-.142-.423,1.1,1.1,0,0,1-.147-.272,1.067,1.067,0,0,0-.187-.309.357.357,0,0,1-.106-.158,2.054,2.054,0,0,0-.346-.391c-.488-.477-.591-.562-.775-.642-.089-.038-.162-.093-.162-.122a.8.8,0,0,0-.335-.163,1.53,1.53,0,0,1-.369-.156,3.765,3.765,0,0,0-1.031-.217c-.1,0-.19-.027-.19-.059a6.618,6.618,0,0,0-1.75,0m28,0c0,.032-.083.058-.184.058a5.071,5.071,0,0,0-1.216.239.915.915,0,0,1-.335.146,1.773,1.773,0,0,0-.365.14.978.978,0,0,1-.233.115.838.838,0,0,0-.262.148,1.068,1.068,0,0,1-.248.168c-.1.054-.189.124-.189.155s-.036.057-.079.057a.723.723,0,0,0-.277.2.761.761,0,0,1-.268.2c-.039,0-.1.06-.139.132a1.929,1.929,0,0,1-.279.342,1.442,1.442,0,0,0-.395.533c-.019.056-.054.1-.077.1a.629.629,0,0,0-.153.248,1.612,1.612,0,0,1-.172.313,1.206,1.206,0,0,0-.145.321,1.2,1.2,0,0,1-.118.285,3.445,3.445,0,0,0-.232.859c0,.068-.026.132-.057.142a10.8,10.8,0,0,0-.013,3.079,2.018,2.018,0,0,1,.145.5,1.792,1.792,0,0,0,.151.5,1.053,1.053,0,0,1,.148.319,2.139,2.139,0,0,0,.211.447.676.676,0,0,1,.114.212c0,.054.017.078.411.584a7.282,7.282,0,0,0,.983,1.008,1.156,1.156,0,0,1,.239.175.8.8,0,0,0,.274.175.161.161,0,0,1,.117.078.882.882,0,0,0,.324.183.683.683,0,0,1,.277.148,1.125,1.125,0,0,0,.394.149,1.777,1.777,0,0,1,.423.147,5.072,5.072,0,0,0,1.26.227c.141,0,.256.026.256.058s.233.058.583.058a1.767,1.767,0,0,0,.583-.05,1.234,1.234,0,0,1,.476-.086,3.436,3.436,0,0,0,1.157-.214.933.933,0,0,1,.35-.141.99.99,0,0,0,.351-.139.676.676,0,0,1,.248-.157,1.076,1.076,0,0,0,.323-.219.244.244,0,0,1,.14-.1,1.121,1.121,0,0,0,.312-.263c.326-.346.318-.355.318.35v.612h3.5V16h-3.5v.583c0,.63-.012.658-.185.437-.063-.08-.138-.146-.166-.146a.655.655,0,0,1-.214-.15,1.254,1.254,0,0,0-.557-.379c-.12-.043-.219-.1-.219-.123a.786.786,0,0,0-.321-.138.789.789,0,0,1-.321-.138,4.754,4.754,0,0,0-1.21-.239c-.1,0-.19-.026-.19-.058a6.618,6.618,0,0,0-1.75,0m10.15.387a1.859,1.859,0,0,0,.209.587,1.151,1.151,0,0,1,.146.335c.043.146.1.266.122.266a.8.8,0,0,1,.138.321.807.807,0,0,0,.136.321.821.821,0,0,1,.145.321.822.822,0,0,0,.145.321.929.929,0,0,1,.149.35.968.968,0,0,0,.147.35,1,1,0,0,1,.154.35,1.183,1.183,0,0,0,.146.35,1.035,1.035,0,0,1,.143.321.9.9,0,0,0,.149.321,1.018,1.018,0,0,1,.145.35.929.929,0,0,0,.149.35.822.822,0,0,1,.145.321.824.824,0,0,0,.145.321.8.8,0,0,1,.136.321.8.8,0,0,0,.138.321c.024,0,.079.12.122.266a1.167,1.167,0,0,0,.146.336,1.794,1.794,0,0,1,.182.434,1.073,1.073,0,0,0,.157.365.83.83,0,0,1,.135.321.767.767,0,0,0,.139.321.789.789,0,0,1,.147.321.761.761,0,0,0,.149.321c.027,0,.066.085.088.189a1.859,1.859,0,0,0,.169.423,3.128,3.128,0,0,1,.208.481c.043.136.1.248.117.248a1.054,1.054,0,0,1,.151.35,1.177,1.177,0,0,0,.146.35,1.038,1.038,0,0,1,.143.321.807.807,0,0,0,.155.321c.025,0,.046.066.046.146s-.021.146-.047.146a.694.694,0,0,0-.152.292.774.774,0,0,1-.146.292.774.774,0,0,0-.146.292.776.776,0,0,1-.146.292.769.769,0,0,0-.146.292.711.711,0,0,1-.151.292.926.926,0,0,0-.155.349,1.092,1.092,0,0,1-.147.35.828.828,0,0,0-.143.292.774.774,0,0,1-.146.292.774.774,0,0,0-.146.292.8.8,0,0,1-.144.292.756.756,0,0,0-.145.277,1.4,1.4,0,0,1-.183.354c-.172.172-.042.186,1.786.186h1.863l.074-.2c.041-.112.092-.2.115-.2a.776.776,0,0,0,.146-.292.768.768,0,0,1,.146-.292.776.776,0,0,0,.146-.292.773.773,0,0,1,.146-.292.774.774,0,0,0,.146-.292.8.8,0,0,1,.144-.292.76.76,0,0,0,.145-.277,1.462,1.462,0,0,1,.171-.342,1.124,1.124,0,0,0,.148-.321,1.147,1.147,0,0,1,.119-.285,1.486,1.486,0,0,0,.142-.306.747.747,0,0,1,.143-.277.8.8,0,0,0,.144-.292.774.774,0,0,1,.146-.292.774.774,0,0,0,.146-.292.776.776,0,0,1,.146-.292.769.769,0,0,0,.146-.292.768.768,0,0,1,.146-.292.771.771,0,0,0,.146-.292.7.7,0,0,1,.152-.292.7.7,0,0,0,.152-.292.774.774,0,0,1,.146-.292.774.774,0,0,0,.146-.292.745.745,0,0,1,.147-.292.816.816,0,0,0,.136-.321.781.781,0,0,1,.139-.321.717.717,0,0,0,.15-.292.776.776,0,0,1,.146-.292.768.768,0,0,0,.146-.292.768.768,0,0,1,.146-.292.771.771,0,0,0,.146-.292.774.774,0,0,1,.146-.292.774.774,0,0,0,.146-.292.776.776,0,0,1,.146-.292.769.769,0,0,0,.146-.292.769.769,0,0,1,.146-.292.77.77,0,0,0,.146-.292.774.774,0,0,1,.146-.292.774.774,0,0,0,.146-.292.794.794,0,0,1,.145-.292.627.627,0,0,0,.118-.266,1.109,1.109,0,0,1,.148-.336,1.427,1.427,0,0,0,.176-.346.752.752,0,0,1,.145-.277.8.8,0,0,0,.144-.292.775.775,0,0,1,.146-.292.768.768,0,0,0,.146-.292.768.768,0,0,1,.146-.292.77.77,0,0,0,.146-.292.747.747,0,0,1,.148-.292c.024,0,.079-.108.123-.241a1.129,1.129,0,0,1,.142-.306,2.581,2.581,0,0,0,.322-.8c0-.1-.081-.109-1.784-.109H186.7l-.092.233c-.05.128-.111.233-.134.233a.974.974,0,0,0-.152.349,1.08,1.08,0,0,1-.147.35.834.834,0,0,0-.143.292.771.771,0,0,1-.146.292.768.768,0,0,0-.146.292.733.733,0,0,1-.149.292.821.821,0,0,0-.145.321.858.858,0,0,1-.143.321.757.757,0,0,0-.147.292.771.771,0,0,1-.146.292.768.768,0,0,0-.146.292.75.75,0,0,1-.147.292.817.817,0,0,0-.136.321.78.78,0,0,1-.138.321.717.717,0,0,0-.15.292.768.768,0,0,1-.146.292.771.771,0,0,0-.146.292.758.758,0,0,1-.147.292.861.861,0,0,0-.143.321.824.824,0,0,1-.145.321.733.733,0,0,0-.149.292.769.769,0,0,1-.146.292.77.77,0,0,0-.146.292.759.759,0,0,1-.147.292.987.987,0,0,0-.146.35.207.207,0,1,1-.3,0,1.139,1.139,0,0,0-.14-.35,1.082,1.082,0,0,1-.147-.335,1.79,1.79,0,0,0-.149-.365,1.539,1.539,0,0,1-.138-.335.829.829,0,0,0-.14-.306,1.159,1.159,0,0,1-.148-.379.994.994,0,0,0-.157-.379.855.855,0,0,1-.146-.35,1,1,0,0,0-.138-.35,1.024,1.024,0,0,1-.144-.35.933.933,0,0,0-.149-.35.92.92,0,0,1-.142-.35.855.855,0,0,0-.146-.35,1,1,0,0,1-.157-.379,1.159,1.159,0,0,0-.148-.379.829.829,0,0,1-.14-.306,1.478,1.478,0,0,0-.14-.335,1.652,1.652,0,0,1-.143-.365.884.884,0,0,0-.147-.335,1.084,1.084,0,0,1-.152-.379,1.06,1.06,0,0,0-.153-.379.716.716,0,0,1-.134-.3.917.917,0,0,0-.163-.349c-.086-.054-3.66-.065-3.66-.011m-69.349,2.515a2.259,2.259,0,0,0,.544.15,2.432,2.432,0,0,1,.554.152,1.1,1.1,0,0,0,.263.155,3.518,3.518,0,0,1,1.225,1.164,1.856,1.856,0,0,0,.186.3,1.324,1.324,0,0,1,.142.41,1.033,1.033,0,0,0,.134.376,5.353,5.353,0,0,1,0,1.61,1.036,1.036,0,0,0-.134.376,1.325,1.325,0,0,1-.142.409,1.856,1.856,0,0,0-.186.3,3.329,3.329,0,0,1-1.327,1.21c-.12.036-.219.086-.219.11a3.148,3.148,0,0,1-.96.229c-.082,0-.149.026-.149.058a2.788,2.788,0,0,1-1.06.014,2.028,2.028,0,0,0-.51-.143,1.957,1.957,0,0,1-.525-.152.794.794,0,0,0-.26-.133.534.534,0,0,1-.254-.154.117.117,0,0,0-.095-.074,3.85,3.85,0,0,1-.8-.795.293.293,0,0,0-.1-.142.952.952,0,0,1-.187-.348,1.034,1.034,0,0,0-.127-.291,4.663,4.663,0,0,1,0-2.563.957.957,0,0,0,.121-.264,1.029,1.029,0,0,1,.189-.338.343.343,0,0,0,.109-.169,2.939,2.939,0,0,1,.745-.746.13.13,0,0,0,.106-.081.662.662,0,0,1,.275-.188,1.258,1.258,0,0,0,.274-.148,3.189,3.189,0,0,1,.9-.226c.084,0,.152-.026.152-.058a3.092,3.092,0,0,1,1.118-.015m15.974,0a1.175,1.175,0,0,0,.437.12,1.572,1.572,0,0,1,.514.15.611.611,0,0,0,.25.115.953.953,0,0,1,.341.182.762.762,0,0,0,.208.144,3.631,3.631,0,0,1,.641.641.777.777,0,0,0,.146.21.63.63,0,0,1,.146.238.269.269,0,0,0,.08.149,3.144,3.144,0,0,1,.27,1.15c0,.13.026.237.058.237s.058.079.058.175-.026.175-.058.175-.058.106-.058.236a3.144,3.144,0,0,1-.27,1.15.277.277,0,0,0-.08.161.545.545,0,0,1-.146.238.687.687,0,0,0-.146.2,3.612,3.612,0,0,1-.641.642.766.766,0,0,0-.208.144.952.952,0,0,1-.344.182.433.433,0,0,0-.213.1,2.489,2.489,0,0,1-.882.219c-.088,0-.16.027-.16.059a2.788,2.788,0,0,1-1.06.014,2.287,2.287,0,0,0-.544-.15,2.342,2.342,0,0,1-.554-.154.85.85,0,0,0-.248-.139c-.12-.05-.219-.119-.219-.152a.07.07,0,0,0-.073-.063.97.97,0,0,1-.306-.2,1.369,1.369,0,0,0-.27-.2c-.021,0-.053-.046-.072-.1a1.313,1.313,0,0,0-.286-.432.362.362,0,0,1-.1-.191.311.311,0,0,0-.092-.175,1.783,1.783,0,0,1-.19-.573,1.959,1.959,0,0,0-.141-.5,2.615,2.615,0,0,1,0-.953,2.034,2.034,0,0,0,.144-.511,1.916,1.916,0,0,1,.154-.525.806.806,0,0,0,.145-.253c.05-.12.119-.219.152-.219s.062-.037.062-.083a2.859,2.859,0,0,1,.786-.792.13.13,0,0,0,.108-.082.454.454,0,0,1,.239-.15c.114-.038.208-.091.208-.118a2.965,2.965,0,0,1,.959-.233c.082,0,.149-.026.149-.058s.224-.058.554-.058a1.683,1.683,0,0,1,.554.047m45.208.012c0,.032.1.058.215.058a3.336,3.336,0,0,1,1.01.232,1.3,1.3,0,0,0,.306.146c.152.057.277.128.277.157s.046.069.1.089a3.1,3.1,0,0,1,.772.763.131.131,0,0,0,.082.106.69.69,0,0,1,.184.3,1.422,1.422,0,0,0,.141.3,4.5,4.5,0,0,1,.035,2.645,1.183,1.183,0,0,0-.148.322.588.588,0,0,1-.159.284.124.124,0,0,0-.076.106.371.371,0,0,1-.146.192.442.442,0,0,0-.148.165c0,.11-.284.361-.523.469a.509.509,0,0,0-.146.107.863.863,0,0,1-.263.146.757.757,0,0,0-.238.129,2.4,2.4,0,0,1-.8.218c-.072,0-.131.027-.131.059a3.573,3.573,0,0,1-1.283,0c0-.032-.068-.058-.151-.058a2.588,2.588,0,0,1-.84-.234.914.914,0,0,0-.248-.135c-.12-.05-.219-.119-.219-.152a.072.072,0,0,0-.078-.062,2.964,2.964,0,0,1-.8-.8.072.072,0,0,0-.062-.078c-.034,0-.1-.1-.152-.219a.914.914,0,0,0-.135-.248,2.525,2.525,0,0,1-.235-.869c0-.1-.026-.181-.058-.181a2.216,2.216,0,0,1-.014-.943,1.971,1.971,0,0,0,.141-.5,1.779,1.779,0,0,1,.19-.573.306.306,0,0,0,.092-.161.63.63,0,0,1,.146-.238.813.813,0,0,0,.146-.207,2.672,2.672,0,0,1,.639-.623c.1-.057.177-.123.177-.145a.786.786,0,0,1,.292-.145.747.747,0,0,0,.292-.147,3.175,3.175,0,0,1,1.018-.226c.114,0,.207-.026.207-.058s.131-.058.292-.058.292.026.292.058" transform="translate(-50.266 -7.134)" fill-rule="evenodd"/>
  <path id="path1" d="M18.117.143A2.133,2.133,0,0,0,17.651.3a1.293,1.293,0,0,1-.262.16,4.467,4.467,0,0,0-1.17,1.169,1.83,1.83,0,0,1-.185.3,1.325,1.325,0,0,0-.142.409,1.023,1.023,0,0,1-.135.377,4.607,4.607,0,0,0,.011,1.606.144.144,0,0,1,.073.134,2.309,2.309,0,0,0,.225.7,1.4,1.4,0,0,1,.148.248,4.274,4.274,0,0,0,.907.977.265.265,0,0,1,.133.08c.534.534,3.1.79,3.424.342a1.179,1.179,0,0,1,.281-.156c.136-.06.248-.13.248-.155s.046-.06.1-.078a3.345,3.345,0,0,0,1.355-1.939,2.517,2.517,0,0,1,.122-.441,2.58,2.58,0,0,0,0-1.023,2.427,2.427,0,0,1-.115-.441A3.574,3.574,0,0,0,21.116.465a1.039,1.039,0,0,1-.264-.158A4.949,4.949,0,0,0,18.117.143M7.089,5.748a2.711,2.711,0,0,0-.5.1A4.608,4.608,0,0,1,6.054,6a1.413,1.413,0,0,0-.423.137,1.212,1.212,0,0,1-.379.147,1.1,1.1,0,0,0-.379.152.687.687,0,0,1-.275.148,2,2,0,0,0-.335.154,5.274,5.274,0,0,1-.716.457,1.674,1.674,0,0,0-.332.263,1.911,1.911,0,0,1-.324.263,9.1,9.1,0,0,0-1.3,1.444c-.033.072-.077.131-.1.131a.643.643,0,0,0-.151.219,1.494,1.494,0,0,1-.151.248,8.49,8.49,0,0,0-.754,1.6,3.717,3.717,0,0,1-.146.408c-.34.76-.321,4.688.024,4.929a1.777,1.777,0,0,1,.147.423,1.155,1.155,0,0,0,.148.394c.023,0,.076.112.116.248a1.226,1.226,0,0,0,.147.336,1.813,1.813,0,0,1,.181.335.72.72,0,0,0,.141.248.671.671,0,0,1,.149.217,2.108,2.108,0,0,0,.2.317c.048.055.14.172.2.26a17.888,17.888,0,0,0,1.472,1.48.982.982,0,0,1,.249.175,1.347,1.347,0,0,0,.306.208c.056.018.1.053.1.078s.105.093.233.151.233.128.233.155.033.05.073.05a1.873,1.873,0,0,1,.394.162,4.942,4.942,0,0,0,.583.245,1.2,1.2,0,0,1,.292.12,4.144,4.144,0,0,0,.926.231c.063,0,.123.023.134.052a10.535,10.535,0,0,0,3.607.012,1.652,1.652,0,0,1,.408-.115,3.814,3.814,0,0,0,.613-.178c.128-.056.345-.136.481-.179s.248-.1.248-.126.038-.049.085-.049a1.041,1.041,0,0,0,.5-.24c0-.024.089-.072.2-.108a1.282,1.282,0,0,0,.365-.209.612.612,0,0,1,.237-.143c.039,0,.1-.053.133-.117s.1-.117.138-.117a.417.417,0,0,0,.2-.131c.069-.072.251-.236.4-.364a4.874,4.874,0,0,0,.512-.512c.128-.153.292-.335.364-.4a.414.414,0,0,0,.131-.2.139.139,0,0,1,.09-.113.522.522,0,0,0,.183-.217.83.83,0,0,1,.141-.213,11.347,11.347,0,0,0,.753-1.5,1.319,1.319,0,0,1,.111-.323,3.426,3.426,0,0,0,.184-.624,1.443,1.443,0,0,1,.117-.408,10.577,10.577,0,0,0,0-3.587,4.159,4.159,0,0,1-.15-.553,2.6,2.6,0,0,0-.141-.5,2.181,2.181,0,0,1-.151-.381,1.478,1.478,0,0,0-.145-.35,1.318,1.318,0,0,1-.145-.306.744.744,0,0,0-.144-.277c-.022,0-.076-.092-.12-.205a.954.954,0,0,0-.186-.3.311.311,0,0,1-.1-.173.235.235,0,0,0-.117-.151c-.064-.04-.117-.1-.117-.126a8.263,8.263,0,0,0-1.517-1.6c-.112-.085-.255-.2-.317-.256a.386.386,0,0,0-.189-.1c-.042,0-.077-.024-.077-.054s-.125-.115-.277-.189a2.024,2.024,0,0,1-.306-.171,6.591,6.591,0,0,0-1.064-.484c-.088-.02-.161-.059-.161-.087A1.551,1.551,0,0,0,11.012,6a2.665,2.665,0,0,1-.54-.146,12.8,12.8,0,0,0-3.383-.105" transform="translate(-0.031 -0.023)" fill="#7c04fc" fill-rule="evenodd"/>
  <path id="path2" fill-rule="evenodd"/>
  <path id="path3" fill-rule="evenodd"/>
  <path id="path4" fill-rule="evenodd"/>
</svg>
