<svg xmlns="http://www.w3.org/2000/svg" xmlns:xlink="http://www.w3.org/1999/xlink" width="2016.157" height="1351.07" viewBox="0 0 2016.157 1351.07">
  <defs>
    <linearGradient id="linear-gradient" x1="0.057" y1="0.187" x2="0.803" y2="0.914" gradientUnits="objectBoundingBox">
      <stop offset="0" stop-color="#fcfcfc"/>
      <stop offset="1" stop-color="#f5f6fa"/>
    </linearGradient>
  </defs>
  <path id="adex_pattern" data-name="adex pattern" d="M1731.729,1287.571l34.067-34.081,29.426,29.459,29.434-29.459,34.065,34.081-63.5,63.5Zm-224.611,0,34.067-34.081,29.426,29.459,29.434-29.459,34.065,34.081-63.5,63.5Zm-224.969,0,34.067-34.081,29.426,29.459,29.434-29.459,34.065,34.081-63.5,63.5Zm-224.969,0,34.066-34.081,29.427,29.459,29.434-29.459,34.065,34.081-63.5,63.5Zm-225.187,0,34.067-34.083,29.427,29.457,29.435-29.457,34.063,34.083-63.5,63.5Zm-224.61,0,34.067-34.083,29.427,29.457,29.435-29.457,34.063,34.083-63.5,63.5Zm-224.969,0,34.067-34.083,29.426,29.457,29.434-29.457,34.063,34.083-63.5,63.5Zm-224.971,0,34.069-34.083,29.424,29.457,29.434-29.457,34.065,34.083-63.5,63.5Zm1637.783-72.544-68.026,68.015-40.43-40.426,68.024-68.022-68.024-68.022,40.381-40.386,68.073,68.078,68.076-68.078,40.374,40.386-68.021,68.022,68.018,68.022-40.432,40.426Zm-224.61,0-68.026,68.015-40.43-40.426,68.023-68.022-68.023-68.022,40.381-40.386,68.073,68.078,68.074-68.078,40.374,40.386-68.021,68.022,68.019,68.022-40.431,40.426Zm-224.971,0-68.026,68.015-40.43-40.426,68.024-68.022-68.024-68.022,40.381-40.386,68.073,68.078,68.076-68.078,40.374,40.386-68.021,68.022,68.017,68.022-40.43,40.426Zm-224.969,0-68.026,68.015-40.43-40.426,68.024-68.022-68.024-68.022,40.381-40.386,68.073,68.078,68.076-68.078,40.374,40.386L1161.1,1174.6l68.017,68.022-40.431,40.426Zm-225.185,0-68.026,68.015-40.429-40.426L855.06,1174.6l-68.024-68.024,40.379-40.385,68.073,68.078,68.076-68.078,40.375,40.385L935.917,1174.6l68.017,68.022-40.429,40.426Zm-224.61,0-68.028,68.015-40.429-40.426,68.024-68.022-68.024-68.024,40.381-40.385,68.073,68.078,68.076-68.078,40.374,40.385L711.306,1174.6l68.017,68.022-40.429,40.426Zm-224.971,0-68.026,68.015-40.431-40.426,68.026-68.022-68.026-68.024,40.383-40.385,68.072,68.078,68.075-68.078,40.374,40.385-68.02,68.024,68.017,68.022-40.428,40.426Zm-224.969,0-68.028,68.015-40.43-40.426L180.51,1174.6l-68.026-68.024,40.381-40.385,68.075,68.078,68.074-68.078,40.374,40.385L261.367,1174.6l68.017,68.022-40.429,40.426Zm1623.271-176.986,34.067-34.08,29.426,29.457,29.435-29.457,34.063,34.08-63.5,63.5Zm-224.61,0,34.067-34.08,29.426,29.457,29.433-29.457,34.065,34.08-63.5,63.5Zm-224.969,0,34.066-34.08,29.427,29.457,29.434-29.457,34.065,34.08-63.5,63.5Zm-224.971,0,34.066-34.08,29.427,29.457,29.434-29.457,34.065,34.08-63.5,63.5Zm-225.185,0,34.068-34.081,29.427,29.457,29.434-29.457,34.064,34.081-63.5,63.5Zm-224.61,0,34.067-34.081,29.426,29.457,29.434-29.457,34.063,34.081-63.5,63.5Zm-224.971,0,34.067-34.081,29.426,29.457,29.434-29.457,34.064,34.081-63.5,63.5Zm-224.969,0L304,1003.962l29.427,29.457,29.433-29.457,34.065,34.081-63.5,63.5Zm-224.969,0,34.066-34.081,29.426,29.457,29.434-29.457,34.063,34.081-63.5,63.5Zm1750.263,28.194-29.426,29.445-34.067-34.074,63.494-63.5,63.5,63.5-34.065,34.074Zm-224.612,0-29.426,29.445-34.067-34.074,63.493-63.5,63.5,63.5-34.065,34.074Zm-224.969,0-29.426,29.445-34.067-34.074,63.494-63.5,63.5,63.5-34.065,34.074Zm-224.969,0-29.427,29.445-34.066-34.074,63.493-63.5,63.5,63.5-34.065,34.074Zm-225.186,0-29.427,29.443-34.067-34.072,63.494-63.5,63.5,63.5-34.063,34.072Zm-224.61,0-29.427,29.443-34.067-34.072,63.494-63.5,63.5,63.5-34.063,34.072Zm-224.97,0-29.426,29.443-34.067-34.072,63.493-63.5,63.5,63.5-34.063,34.072Zm-224.971,0-29.424,29.443-34.069-34.072,63.493-63.5,63.5,63.5-34.065,34.072ZM1907.711,965.5l-68.026,68.017-40.429-40.428,68.024-68.022-68.024-68.022,40.381-40.386,68.071,68.08,68.076-68.08,40.374,40.386-68.021,68.022,68.019,68.022-40.431,40.428Zm-224.612,0-68.026,68.017-40.429-40.428,68.024-68.022-68.024-68.022,40.381-40.386,68.073,68.08,68.076-68.08,40.374,40.386-68.021,68.022,68.017,68.022-40.43,40.428Zm-224.969,0-68.026,68.017-40.43-40.428,68.024-68.022-68.024-68.022,40.381-40.386,68.072,68.08,68.076-68.08,40.374,40.386-68.02,68.022,68.017,68.022-40.429,40.428Zm-224.969,0-68.026,68.017L1124.7,993.089l68.026-68.022L1124.7,857.044l40.383-40.386,68.071,68.08,68.076-68.08,40.375,40.386-68.021,68.022,68.017,68.022-40.429,40.428Zm-225.185,0-68.027,68.014-40.43-40.424,68.026-68.024L899.52,857.042,939.9,816.659l68.073,68.078,68.077-68.078,40.374,40.383L1048.4,925.066l68.018,68.024-40.428,40.424Zm-224.611,0-68.026,68.014L674.91,993.091l68.024-68.024L674.91,857.042l40.381-40.383,68.073,68.078,68.075-68.078,40.375,40.383-68.022,68.024,68.018,68.024-40.428,40.424Zm-224.969,0-68.026,68.014-40.43-40.424,68.024-68.024L449.94,857.042l40.379-40.383,68.073,68.078,68.078-68.078,40.372,40.383-68.021,68.024,68.017,68.024-40.429,40.424Zm-224.969,0L265.4,1033.515,224.97,993.091l68.024-68.024L224.97,857.042l40.381-40.383,68.073,68.078L401.5,816.659l40.374,40.383-68.023,68.024,68.017,68.024-40.429,40.424Zm-224.971,0L40.43,1033.515,0,993.091l68.024-68.024L0,857.042l40.381-40.383,68.072,68.078,68.076-68.078L216.9,857.042l-68.022,68.024L216.9,993.091l-40.431,40.424ZM1731.729,788.515l34.067-34.081,29.426,29.459,29.434-29.459,34.065,34.081-63.5,63.5Zm-224.611,0,34.067-34.081,29.426,29.459,29.434-29.459,34.065,34.081-63.5,63.5Zm-224.969,0,34.067-34.081,29.426,29.459,29.434-29.459,34.065,34.081-63.5,63.5Zm-224.969,0,34.066-34.081,29.427,29.459,29.434-29.459,34.065,34.081-63.5,63.5Zm-225.187,0,34.067-34.081,29.427,29.455,29.435-29.455,34.063,34.081-63.5,63.495Zm-224.61,0,34.067-34.081,29.427,29.455,29.435-29.455,34.063,34.081-63.5,63.495Zm-224.969,0,34.067-34.081,29.426,29.455,29.434-29.455L509.4,788.517l-63.5,63.495Zm-224.971,0,34.069-34.081,29.424,29.455,29.434-29.455,34.065,34.081-63.5,63.495Zm1750.263,28.194-29.426,29.445-34.067-34.074,63.494-63.5,63.5,63.5-34.063,34.074Zm-224.61,0-29.426,29.445L1619.6,812.082l63.494-63.5,63.5,63.5-34.065,34.074Zm-224.969,0L1428.7,846.156l-34.066-34.074,63.493-63.5,63.5,63.5-34.065,34.074Zm-224.971,0-29.427,29.445-34.066-34.074,63.493-63.5,63.5,63.5-34.065,34.074Zm-225.183,0-29.427,29.445-34.068-34.074,63.5-63.5,63.5,63.5-34.064,34.074Zm-224.612,0-29.426,29.445-34.067-34.074,63.493-63.5,63.5,63.5L812.8,846.156Zm-224.971,0-29.426,29.445L494.9,812.082l63.493-63.5,63.5,63.5-34.064,34.074Zm-224.969,0L304,846.156l-34.067-34.074,63.494-63.5,63.5,63.5-34.065,34.074Zm-224.97,0L79.026,846.156,44.959,812.082l63.493-63.5,63.5,63.5-34.063,34.074ZM1795.226,715.972,1727.2,783.989l-40.43-40.427,68.024-68.022-68.024-68.022,40.381-40.386,68.073,68.08,68.076-68.08,40.374,40.386-68.021,68.022,68.018,68.022-40.432,40.427Zm-224.61,0-68.026,68.017-40.43-40.427,68.023-68.022-68.023-68.022,40.381-40.386,68.073,68.08,68.074-68.08,40.374,40.386-68.021,68.022,68.019,68.022-40.431,40.427Zm-224.971,0-68.026,68.017-40.43-40.427,68.024-68.022-68.024-68.022,40.381-40.386,68.073,68.08,68.076-68.08,40.374,40.386-68.021,68.022,68.017,68.022-40.43,40.427Zm-224.969,0-68.026,68.017-40.43-40.427,68.024-68.022-68.024-68.022L1052.6,567.13l68.073,68.08,68.076-68.08,40.374,40.386L1161.1,675.539l68.017,68.022-40.431,40.427Zm-225.185,0-68.026,68.015-40.429-40.426,68.024-68.022-68.024-68.026,40.379-40.383,68.073,68.078,68.076-68.078,40.375,40.383-68.021,68.026,68.017,68.022-40.429,40.426Zm-224.61,0-68.028,68.015-40.429-40.426,68.024-68.022-68.024-68.026,40.381-40.383,68.073,68.078,68.076-68.078,40.374,40.383-68.022,68.026,68.017,68.022-40.429,40.426Zm-224.971,0-68.026,68.015-40.431-40.426,68.026-68.022-68.026-68.026,40.383-40.383,68.072,68.078,68.075-68.078,40.374,40.383-68.02,68.026,68.017,68.022-40.428,40.426Zm-224.969,0-68.028,68.015-40.43-40.426,68.026-68.022-68.026-68.026,40.381-40.383,68.075,68.078,68.074-68.078,40.374,40.383-68.021,68.026,68.017,68.022-40.429,40.426ZM1844.212,538.988l34.067-34.081,29.426,29.459,29.435-29.459,34.063,34.081-63.5,63.5Zm-224.61,0,34.067-34.081,29.426,29.459,29.433-29.459,34.065,34.081-63.5,63.5Zm-224.969,0,34.066-34.081,29.427,29.459,29.434-29.459,34.065,34.081-63.5,63.5Zm-224.971,0,34.066-34.081,29.427,29.459,29.434-29.459,34.065,34.081-63.5,63.5Zm-225.185,0,34.068-34.081,29.427,29.457,29.434-29.457,34.064,34.081-63.5,63.5Zm-224.61,0,34.067-34.081,29.426,29.457L812.8,504.906l34.063,34.081-63.5,63.5Zm-224.971,0,34.067-34.081,29.426,29.457,29.434-29.457,34.064,34.081-63.5,63.5Zm-224.969,0L304,504.906l29.427,29.457,29.433-29.457,34.065,34.081-63.5,63.5Zm-224.969,0,34.066-34.081,29.426,29.457,29.434-29.457,34.063,34.081-63.5,63.5Zm1750.263,28.194L1765.8,596.627l-34.067-34.074,63.494-63.5,63.5,63.5-34.065,34.074Zm-224.612,0-29.426,29.445-34.067-34.074,63.493-63.5,63.5,63.5-34.065,34.074Zm-224.969,0-29.426,29.445-34.067-34.074,63.494-63.5,63.5,63.5-34.065,34.074Zm-224.969,0-29.427,29.445-34.066-34.074,63.493-63.5,63.5,63.5-34.065,34.074Zm-225.186,0L866.06,596.627l-34.067-34.072,63.494-63.5,63.5,63.5-34.063,34.072Zm-224.61,0L641.45,596.627l-34.067-34.072,63.494-63.5,63.5,63.5-34.063,34.072Zm-224.97,0L416.48,596.627l-34.067-34.072,63.493-63.5,63.5,63.5-34.063,34.072Zm-224.971,0-29.424,29.445-34.069-34.072,63.493-63.5,63.5,63.5L250.37,596.627ZM1907.711,466.445l-68.026,68.015-40.429-40.428,68.024-68.021-68.024-68.024,40.381-40.385,68.071,68.078,68.076-68.078,40.374,40.385-68.021,68.024,68.019,68.021-40.431,40.428Zm-224.612,0-68.026,68.015-40.429-40.428,68.024-68.021-68.024-68.024,40.381-40.385,68.073,68.078,68.076-68.078,40.374,40.385-68.021,68.024,68.017,68.021-40.43,40.428Zm-224.969,0L1390.1,534.46l-40.43-40.428,68.024-68.021-68.024-68.024,40.381-40.385,68.072,68.078L1526.2,317.6l40.374,40.385-68.02,68.024,68.017,68.021-40.429,40.428Zm-224.969,0-68.026,68.015L1124.7,494.033l68.026-68.021L1124.7,357.988l40.383-40.385,68.071,68.078,68.076-68.078,40.375,40.385-68.021,68.024,68.017,68.021-40.429,40.428Zm-225.185,0-68.027,68.014-40.43-40.424,68.026-68.022L899.52,357.986,939.9,317.6l68.073,68.078L1076.05,317.6l40.374,40.383L1048.4,426.012l68.018,68.022-40.428,40.424Zm-224.611,0-68.026,68.014L674.91,494.035l68.024-68.022L674.91,357.986,715.291,317.6l68.073,68.078L851.438,317.6l40.375,40.383-68.022,68.026,68.018,68.022L851.38,534.459Zm-224.969,0L490.37,534.459l-40.43-40.424,68.024-68.022L449.94,357.986,490.32,317.6l68.073,68.078L626.471,317.6l40.372,40.383-68.021,68.026,68.017,68.022L626.41,534.459Zm-224.969,0L265.4,534.459,224.97,494.035l68.024-68.022L224.97,357.986,265.351,317.6l68.073,68.078L401.5,317.6l40.374,40.383-68.023,68.026,68.017,68.022-40.429,40.424Zm-224.971,0L40.43,534.459,0,494.035l68.024-68.022L0,357.986,40.382,317.6l68.072,68.078L176.53,317.6,216.9,357.986l-68.022,68.026L216.9,494.035,176.47,534.459ZM1731.729,289.459l34.067-34.081,29.426,29.459,29.434-29.459,34.065,34.081-63.5,63.5Zm-224.611,0,34.067-34.081,29.426,29.459,29.434-29.459,34.065,34.081-63.5,63.5Zm-224.969,0,34.067-34.081,29.426,29.459,29.434-29.459,34.065,34.081-63.5,63.5Zm-224.969,0,34.066-34.081,29.427,29.459,29.434-29.459,34.065,34.081-63.5,63.5Zm-225.187,0,34.067-34.081,29.427,29.457,29.435-29.457,34.063,34.081-63.5,63.5Zm-224.61,0,34.067-34.081,29.427,29.457,29.435-29.457,34.063,34.081-63.5,63.5Zm-224.969,0,34.067-34.081,29.426,29.457,29.434-29.457L509.4,289.459l-63.5,63.5Zm-224.971,0,34.069-34.081,29.424,29.457,29.434-29.457,34.065,34.081-63.5,63.5Zm1750.263,28.2L1878.28,347.1l-34.067-34.074,63.494-63.5,63.5,63.5L1937.141,347.1Zm-224.61,0L1653.67,347.1,1619.6,313.026l63.494-63.5,63.5,63.5L1712.529,347.1Zm-224.969,0L1428.7,347.1l-34.066-34.074,63.493-63.5,63.5,63.5L1487.561,347.1Zm-224.971,0L1203.729,347.1l-34.066-34.074,63.493-63.5,63.5,63.5L1262.59,347.1Zm-225.183,0L978.546,347.1l-34.068-34.072,63.5-63.5,63.5,63.5L1037.407,347.1Zm-224.612,0L753.935,347.1l-34.067-34.072,63.493-63.5,63.5,63.5L812.8,347.1Zm-224.971,0L528.964,347.1,494.9,313.026l63.493-63.5,63.5,63.5L587.825,347.1Zm-224.969,0L304,347.1l-34.067-34.072,63.494-63.5,63.5,63.5L362.855,347.1Zm-224.97,0L79.026,347.1,44.959,313.026l63.493-63.5,63.5,63.5L137.886,347.1ZM1795.226,216.917,1727.2,284.932l-40.43-40.426,68.024-68.022-68.024-68.024,40.381-40.385,68.073,68.078L1863.3,68.074l40.374,40.385-68.021,68.024,68.018,68.022-40.432,40.426Zm-224.61,0-68.026,68.015-40.43-40.426,68.023-68.022-68.023-68.024,40.381-40.385,68.073,68.078,68.074-68.078,40.374,40.385-68.021,68.024,68.019,68.022-40.431,40.426Zm-224.971,0-68.026,68.015-40.43-40.426,68.024-68.022-68.024-68.024,40.381-40.385,68.073,68.078,68.076-68.078,40.374,40.385-68.021,68.024,68.017,68.022-40.43,40.426Zm-224.969,0-68.026,68.015-40.43-40.426,68.024-68.022-68.024-68.024L1052.6,68.074l68.073,68.078,68.076-68.078,40.374,40.385L1161.1,176.483l68.017,68.022-40.431,40.426Zm-225.185,0L827.465,284.93l-40.429-40.424,68.024-68.022-68.024-68.026,40.379-40.383,68.073,68.08,68.076-68.08,40.375,40.383-68.021,68.026,68.017,68.022L963.505,284.93Zm-224.61,0L602.854,284.93l-40.429-40.424,68.024-68.022-68.024-68.026,40.381-40.383,68.073,68.08,68.076-68.08,40.374,40.383-68.022,68.026,68.017,68.022L738.894,284.93Zm-224.971,0L377.885,284.93l-40.431-40.424,68.026-68.022-68.026-68.026,40.383-40.383,68.072,68.08,68.075-68.08,40.374,40.383-68.02,68.026,68.017,68.022L513.926,284.93Zm-224.969,0L152.914,284.93l-40.43-40.424,68.026-68.022-68.026-68.026,40.381-40.383,68.075,68.08,68.074-68.08,40.374,40.383-68.021,68.026,68.017,68.022L288.955,284.93Zm1574.28-148.79L1765.8,97.571,1731.729,63.5,1795.222,0l63.5,63.5-34.065,34.074Zm-224.612,0-29.426,29.445L1507.117,63.5,1570.61,0l63.5,63.5-34.065,34.074Zm-224.969,0-29.426,29.445L1282.148,63.5,1345.642,0l63.5,63.5-34.065,34.074Zm-224.969,0-29.427,29.445L1057.179,63.5,1120.672,0l63.5,63.5-34.065,34.074Zm-225.186,0L866.06,97.571,831.992,63.5,895.486,0l63.5,63.5L924.921,97.571Zm-224.61,0L641.45,97.571,607.382,63.5,670.876,0l63.5,63.5L700.312,97.571Zm-224.97,0L416.48,97.571,382.414,63.5,445.907,0l63.5,63.5L475.341,97.571Zm-224.971,0L191.512,97.571,157.443,63.5,220.936,0l63.5,63.5L250.37,97.571Z" transform="translate(0 0)" fill="url(#linear-gradient)"/>
</svg>
