<svg xmlns="http://www.w3.org/2000/svg" xmlns:xlink="http://www.w3.org/1999/xlink" width="1286.748" height="1557.194" viewBox="0 0 1286.748 1557.194">
  <defs>
    <linearGradient id="linear-gradient" x1="0.099" y1="0.189" x2="0.879" y2="0.814" gradientUnits="objectBoundingBox">
      <stop offset="0" stop-color="#fff"/>
      <stop offset="1" stop-color="#efeef1"/>
    </linearGradient>
  </defs>
  <g id="pattern" transform="translate(5318.945 -5059)">
    <path id="Union_21" data-name="Union 21" d="M-2780.021,6774.6l39.264-39.281,33.916,33.95,33.925-33.95,39.261,39.281-73.185,73.185Zm-258.878,0,39.266-39.281,33.916,33.95,33.925-33.95,39.261,39.281-73.185,73.185Zm-259.291,0,39.264-39.281,33.916,33.95,33.925-33.95,39.261,39.281-73.185,73.185Zm-259.292,0,39.266-39.281,33.914,33.95,33.925-33.95,39.261,39.281-73.185,73.185Zm850.647-83.612-78.4,78.393-46.6-46.594,78.4-78.4-78.4-78.4,46.541-46.546,78.458,78.465,78.463-78.465,46.534,46.546-78.4,78.4,78.394,78.4-46.6,46.594Zm-258.876,0-78.406,78.393-46.6-46.594,78.4-78.4-78.4-78.4,46.541-46.546,78.459,78.465,78.461-78.465,46.534,46.546-78.4,78.4,78.394,78.4-46.6,46.594Zm-259.293,0-78.4,78.393-46.6-46.594,78.4-78.4-78.4-78.4,46.542-46.546,78.458,78.465,78.461-78.465,46.534,46.546-78.4,78.4,78.4,78.4-46.6,46.594Zm-259.291,0-78.406,78.393-46.6-46.594,78.4-78.4-78.4-78.4,46.541-46.546,78.46,78.465,78.461-78.465,46.534,46.546-78.4,78.4,78.394,78.4-46.6,46.594Zm833.92-203.986,39.266-39.281,33.916,33.952,33.925-33.952,39.261,39.281-73.185,73.186Zm-258.877,0,39.264-39.281,33.916,33.952,33.925-33.952,39.261,39.281-73.185,73.186Zm-259.292,0,39.264-39.281,33.916,33.952,33.925-33.952,39.261,39.281-73.185,73.186Zm-259.292,0,39.266-39.281,33.916,33.952,33.925-33.952,39.261,39.281-73.185,73.186Zm-259.291,0,39.264-39.281,33.916,33.952,33.925-33.952,39.261,39.281-73.185,73.186Zm980.287,32.5-33.916,33.935-39.264-39.271,73.18-73.185,73.185,73.185-39.261,39.271Zm-258.877,0-33.916,33.935-39.266-39.271,73.182-73.185,73.185,73.185-39.261,39.271Zm-259.292,0-33.916,33.935-39.264-39.271,73.18-73.185,73.185,73.185-39.261,39.271Zm-259.292,0-33.914,33.935-39.266-39.271,73.18-73.185,73.185,73.185-39.261,39.271Zm907.114-116.108-78.406,78.391-46.6-46.592,78.4-78.4-78.4-78.4,46.541-46.544,78.459,78.465,78.461-78.465,46.534,46.544-78.4,78.4,78.394,78.4-46.6,46.592Zm-258.878,0-78.4,78.391-46.6-46.592,78.4-78.4-78.4-78.4,46.542-46.544,78.458,78.465,78.461-78.465,46.534,46.544-78.4,78.4,78.4,78.4-46.6,46.592Zm-259.292,0-78.4,78.391-46.6-46.592,78.4-78.4-78.4-78.4,46.541-46.544,78.458,78.465,78.463-78.465,46.534,46.544-78.4,78.4,78.394,78.4-46.6,46.592Zm-259.291,0-78.406,78.391-46.6-46.592,78.4-78.4-78.4-78.4,46.541-46.544,78.459,78.465,78.461-78.465,46.534,46.544-78.4,78.4,78.394,78.4-46.6,46.592Zm-259.293,0-78.4,78.391-46.6-46.592,78.4-78.4-78.4-78.4,46.541-46.544,78.458,78.465,78.463-78.465,46.534,46.544-78.4,78.4,78.394,78.4-46.6,46.592Zm833.922-203.986,39.264-39.281,33.916,33.951,33.925-33.951,39.261,39.281-73.185,73.184Zm-258.878,0,39.266-39.281,33.916,33.951,33.925-33.951,39.261,39.281-73.185,73.184Zm-259.291,0,39.264-39.281,33.916,33.951,33.925-33.951,39.261,39.281-73.185,73.184Zm-259.292,0,39.266-39.281,33.914,33.951,33.925-33.951,39.261,39.281L-3484.3,6272.6Zm980.289,32.5-33.916,33.937-39.266-39.272,73.182-73.186,73.185,73.186-39.261,39.272Zm-258.878,0-33.916,33.937-39.264-39.272,73.18-73.186,73.185,73.186-39.261,39.272Zm-259.292,0-33.916,33.937-39.264-39.272,73.18-73.186,73.185,73.186-39.261,39.272Zm-259.291,0-33.916,33.937-39.266-39.272,73.182-73.186,73.185,73.186-39.261,39.272Zm-259.292,0-33.916,33.937-39.264-39.272,73.18-73.186,73.185,73.186-39.261,39.272Zm907.112-116.108-78.4,78.393-46.6-46.594,78.4-78.4-78.4-78.4,46.541-46.544,78.458,78.465,78.463-78.465,46.534,46.544-78.4,78.4,78.394,78.4-46.6,46.594Zm-258.876,0-78.406,78.393-46.6-46.594,78.4-78.4-78.4-78.4,46.541-46.544,78.459,78.465,78.461-78.465,46.534,46.544-78.4,78.4,78.394,78.4-46.6,46.594Zm-259.293,0-78.4,78.393-46.6-46.594,78.4-78.4-78.4-78.4,46.542-46.544,78.458,78.465,78.461-78.465,46.534,46.544-78.4,78.4,78.4,78.4-46.6,46.594Zm-259.291,0-78.406,78.393-46.6-46.594,78.4-78.4-78.4-78.4,46.541-46.544,78.46,78.465,78.461-78.465,46.534,46.544-78.4,78.4,78.394,78.4-46.6,46.594Zm833.92-203.985,39.266-39.281,33.916,33.952,33.925-33.952,39.261,39.281L-2577.194,5985Zm-258.877,0,39.264-39.281,33.916,33.952,33.925-33.952,39.261,39.281L-2836.072,5985Zm-259.292,0,39.264-39.281,33.916,33.952,33.925-33.952,39.261,39.281L-3095.365,5985Zm-259.292,0,39.266-39.281,33.916,33.952,33.925-33.952,39.261,39.281L-3354.656,5985Zm-259.291,0,39.264-39.281,33.916,33.952,33.925-33.952,39.261,39.281L-3613.948,5985Zm980.287,32.5-33.916,33.937-39.264-39.271,73.18-73.187,73.185,73.187-39.261,39.271Zm-258.877,0-33.916,33.937-39.266-39.271,73.182-73.187,73.185,73.187-39.261,39.271Zm-259.292,0-33.916,33.937-39.264-39.271,73.18-73.187,73.185,73.187-39.261,39.271Zm-259.292,0-33.914,33.937-39.266-39.271,73.18-73.187,73.185,73.187-39.261,39.271Zm907.114-116.107-78.406,78.391-46.6-46.592,78.4-78.4-78.4-78.4,46.541-46.544,78.459,78.465,78.461-78.465,46.534,46.544-78.4,78.4,78.394,78.4-46.6,46.592Zm-258.878,0-78.4,78.391-46.6-46.592,78.4-78.4-78.4-78.4,46.542-46.544,78.458,78.465,78.461-78.465,46.534,46.544-78.4,78.4,78.4,78.4-46.6,46.592Zm-259.292,0-78.4,78.391-46.6-46.592,78.4-78.4-78.4-78.4,46.541-46.544,78.458,78.465,78.463-78.465,46.534,46.544-78.4,78.4,78.394,78.4-46.6,46.592Zm-259.291,0-78.406,78.391-46.6-46.592,78.4-78.4-78.4-78.4,46.541-46.544,78.459,78.465,78.461-78.465,46.534,46.544-78.4,78.4,78.394,78.4-46.6,46.592Zm-259.293,0-78.4,78.391-46.6-46.592,78.4-78.4-78.4-78.4,46.541-46.544,78.458,78.465,78.463-78.465,46.534,46.544-78.4,78.4,78.394,78.4-46.6,46.592Zm833.922-203.987,39.264-39.281,33.916,33.952,33.925-33.952,39.261,39.281-73.185,73.186Zm-258.878,0,39.266-39.281,33.916,33.952,33.925-33.952,39.261,39.281-73.185,73.186Zm-259.291,0,39.264-39.281,33.916,33.952,33.925-33.952,39.261,39.281-73.185,73.186Zm-259.292,0,39.266-39.281,33.914,33.952,33.925-33.952,39.261,39.281L-3484.3,5697.4Zm980.289,32.5-33.916,33.935-39.266-39.271,73.182-73.185,73.185,73.185-39.261,39.271Zm-258.878,0-33.916,33.935-39.264-39.271,73.18-73.185,73.185,73.185-39.261,39.271Zm-259.292,0-33.916,33.935-39.264-39.271,73.18-73.185,73.185,73.185-39.261,39.271Zm-259.291,0-33.916,33.935-39.266-39.271,73.182-73.185,73.185,73.185-39.261,39.271Zm-259.292,0-33.916,33.935-39.264-39.271,73.18-73.185,73.185,73.185-39.261,39.271Zm907.112-116.108-78.4,78.391-46.6-46.592,78.4-78.4-78.4-78.4,46.541-46.544,78.458,78.465,78.463-78.465,46.534,46.544-78.4,78.4,78.394,78.4-46.6,46.592Zm-258.876,0L-3044.119,5619l-46.6-46.592,78.4-78.4-78.4-78.4,46.541-46.544,78.459,78.465,78.461-78.465,46.534,46.544-78.4,78.4,78.394,78.4-46.6,46.592Zm-259.293,0-78.4,78.391-46.6-46.592,78.4-78.4-78.4-78.4,46.542-46.544,78.458,78.465,78.461-78.465,46.534,46.544-78.4,78.4,78.4,78.4-46.6,46.592Zm-259.291,0L-3562.7,5619l-46.6-46.592,78.4-78.4-78.4-78.4,46.541-46.544,78.46,78.465,78.461-78.465,46.534,46.544-78.4,78.4,78.394,78.4-46.6,46.592Zm777.455-171.489-33.916,33.937-39.264-39.272,73.18-73.186,73.185,73.186-39.261,39.272Zm-258.877,0-33.916,33.937-39.266-39.272,73.182-73.186,73.185,73.186-39.261,39.272Zm-259.292,0-33.916,33.937-39.264-39.272,73.18-73.186,73.185,73.186-39.261,39.272Zm-259.292,0-33.914,33.937-39.266-39.272,73.18-73.186,73.185,73.186-39.261,39.272Z" transform="translate(-1580 -231.597)" fill="url(#linear-gradient)"/>
  </g>
</svg>
